<?xml version="1.0" standalone="no"?>
<!DOCTYPE svg PUBLIC "-//W3C//DTD SVG 20010904//EN"
 "http://www.w3.org/TR/2001/REC-SVG-20010904/DTD/svg10.dtd">
<svg version="1.0" xmlns="http://www.w3.org/2000/svg"
 width="512.000000pt" height="512.000000pt" viewBox="0 0 512.000000 512.000000"
 preserveAspectRatio="xMidYMid meet">

<g transform="translate(0.000000,512.000000) scale(0.100000,-0.100000)"
fill="#000000" stroke="none">
<path d="M1775 4256 c-48 -21 -60 -42 -65 -125 l-5 -76 -220 -6 c-200 -5 -226
-7 -280 -29 -161 -63 -278 -186 -328 -345 l-22 -70 0 -1255 c0 -1361 -3 -1294
56 -1415 59 -119 162 -211 299 -265 l65 -25 1363 -3 c1184 -2 1371 0 1427 13
193 44 355 205 400 396 22 96 22 2492 0 2588 -45 190 -197 346 -385 396 -39
11 -111 15 -252 15 l-198 0 0 61 c0 76 -21 122 -65 143 -18 9 -38 16 -45 16
-7 0 -27 -7 -45 -16 -44 -21 -65 -67 -65 -143 l0 -61 -745 0 -745 0 0 65 c0
80 -19 121 -65 141 -41 17 -42 17 -80 0z m-65 -492 c0 -70 2 -78 29 -105 21
-21 39 -29 65 -29 81 0 116 43 116 144 l0 66 745 0 745 0 0 -55 c0 -100 39
-155 110 -155 71 0 110 55 110 155 l0 57 198 -4 c182 -3 201 -5 250 -27 69
-31 144 -113 168 -183 11 -33 18 -84 18 -133 l1 -80 -1597 -3 -1598 -2 0 82
c0 101 11 142 53 204 42 62 93 102 159 125 44 15 85 18 241 19 l187 0 0 -76z
m2558 -1612 l-3 -1047 -33 -67 c-37 -76 -82 -120 -162 -157 l-55 -26 -1350 0
-1350 0 -57 27 c-75 35 -141 104 -167 174 -21 54 -21 69 -21 1099 l0 1045
1600 0 1600 0 -2 -1048z"/>
<path d="M3252 2758 c-15 -8 -120 -174 -304 -480 -155 -257 -284 -468 -288
-468 -4 0 -84 116 -179 259 -169 254 -193 281 -242 281 -54 0 -109 -58 -109
-114 0 -17 75 -138 210 -341 180 -270 216 -318 250 -335 67 -34 139 -21 191
36 15 16 162 256 328 533 333 556 329 549 272 610 -23 25 -37 31 -68 30 -21 0
-48 -5 -61 -11z"/>
</g>
</svg>
