<?xml version="1.0" standalone="no"?>
<!DOCTYPE svg PUBLIC "-//W3C//DTD SVG 20010904//EN"
 "http://www.w3.org/TR/2001/REC-SVG-20010904/DTD/svg10.dtd">
<svg version="1.0" xmlns="http://www.w3.org/2000/svg"
 width="512.000000pt" height="512.000000pt" viewBox="0 0 512.000000 512.000000"
 preserveAspectRatio="xMidYMid meet">

<g transform="translate(0.000000,512.000000) scale(0.100000,-0.100000)"
fill="#000000" stroke="none">
<path d="M1343 4255 c-61 -26 -63 -37 -63 -415 0 -380 1 -389 65 -416 50 -20
670 -21 719 0 83 34 90 144 13 188 -15 9 -95 15 -257 18 l-235 5 85 66 c283
220 583 331 930 346 409 17 786 -112 1102 -376 461 -387 667 -1026 519 -1609
-150 -586 -609 -1036 -1194 -1171 -279 -65 -589 -50 -862 40 -176 58 -366 163
-517 286 -331 269 -555 709 -575 1128 -6 137 -16 171 -57 196 -39 24 -73 24
-112 0 -49 -30 -56 -67 -44 -215 72 -890 739 -1579 1622 -1675 246 -27 513 2
763 84 118 39 367 165 475 242 122 87 336 301 423 423 81 114 204 359 247 490
77 238 106 507 79 748 -95 880 -791 1554 -1671 1621 -438 33 -895 -104 -1235
-370 -35 -27 -65 -49 -68 -49 -3 0 -5 80 -5 178 0 198 -4 212 -66 238 -40 17
-41 17 -81 -1z"/>
<path d="M2623 3615 c-64 -28 -63 -15 -63 -632 0 -500 2 -561 16 -583 27 -41
647 -660 676 -676 99 -52 196 45 144 144 -8 15 -152 164 -320 332 l-306 305 0
525 c0 583 3 557 -66 586 -40 17 -41 17 -81 -1z"/>
</g>
</svg>
