<svg id="svg" version="1.1" xmlns="http://www.w3.org/2000/svg" xmlns:xlink="http://www.w3.org/1999/xlink" width="400" height="400" viewBox="0, 0, 400,400"><g id="svgg"><path id="path0" d="M134.400 125.681 C 133.850 125.916,132.796 126.372,132.059 126.693 C 130.096 127.547,127.863 129.716,126.923 131.681 C 125.444 134.774,125.200 135.612,125.200 137.600 C 125.200 139.476,125.361 140.071,126.705 143.162 C 127.068 143.998,137.906 155.165,154.747 172.057 C 169.844 187.200,182.249 199.748,182.314 199.941 C 182.378 200.135,170.134 212.608,155.105 227.661 C 128.069 254.739,126.675 256.243,125.643 259.436 C 124.964 261.536,125.560 267.600,126.445 267.600 C 126.640 267.600,126.800 267.845,126.800 268.144 C 126.800 269.756,130.500 272.731,134.519 274.349 C 135.963 274.931,139.249 274.928,140.681 274.344 C 141.297 274.093,142.430 273.621,143.200 273.295 C 144.105 272.911,154.255 263.067,171.910 245.451 C 189.910 227.490,199.494 218.200,200.023 218.200 C 200.553 218.200,210.127 227.482,228.114 245.434 C 245.359 262.647,255.915 272.893,256.800 273.278 C 259.939 274.645,260.524 274.800,262.519 274.794 C 269.016 274.775,274.775 269.016,274.794 262.519 C 274.800 260.528,274.656 259.982,273.284 256.800 C 272.900 255.908,262.801 245.498,245.440 228.098 C 227.847 210.465,218.200 200.517,218.200 200.008 C 218.200 199.499,227.850 189.549,245.451 171.910 C 263.067 154.255,272.911 144.105,273.295 143.200 C 273.621 142.430,274.093 141.297,274.344 140.681 C 274.928 139.249,274.931 135.963,274.349 134.519 C 272.731 130.500,269.756 126.800,268.144 126.800 C 267.845 126.800,267.600 126.640,267.600 126.445 C 267.600 125.560,261.536 124.964,259.436 125.643 C 256.232 126.679,254.692 128.107,227.650 155.113 C 212.605 170.139,200.142 182.380,199.954 182.316 C 199.766 182.252,187.234 169.854,172.106 154.763 C 154.671 137.373,144.087 127.104,143.200 126.720 C 140.038 125.348,139.474 125.201,137.481 125.227 C 136.337 125.242,134.950 125.446,134.400 125.681 " stroke="none" fill="#fcfbfb" fill-rule="evenodd"></path><path id="path1" d="M79.400 50.000 C 79.264 50.220,78.533 50.400,77.776 50.400 C 77.019 50.400,76.400 50.580,76.400 50.800 C 76.400 51.020,75.860 51.200,75.200 51.200 C 74.540 51.200,74.000 51.380,74.000 51.600 C 74.000 51.820,73.640 52.000,73.200 52.000 C 72.760 52.000,72.400 52.180,72.400 52.400 C 72.400 52.620,72.147 52.800,71.838 52.800 C 71.172 52.800,67.859 54.468,67.667 54.900 C 67.593 55.065,67.228 55.200,66.855 55.200 C 66.482 55.200,65.917 55.560,65.600 56.000 C 65.283 56.440,64.793 56.800,64.512 56.800 C 64.230 56.800,64.000 56.980,64.000 57.200 C 64.000 57.420,63.801 57.600,63.559 57.600 C 62.983 57.600,57.600 62.983,57.600 63.559 C 57.600 63.801,57.420 64.000,57.200 64.000 C 56.980 64.000,56.800 64.230,56.800 64.512 C 56.800 64.793,56.440 65.283,56.000 65.600 C 55.560 65.917,55.200 66.482,55.200 66.855 C 55.200 67.228,55.065 67.593,54.900 67.667 C 54.468 67.859,52.800 71.172,52.800 71.838 C 52.800 72.147,52.620 72.400,52.400 72.400 C 52.180 72.400,52.000 72.760,52.000 73.200 C 52.000 73.640,51.820 74.000,51.600 74.000 C 51.380 74.000,51.200 74.540,51.200 75.200 C 51.200 75.860,51.020 76.400,50.800 76.400 C 50.580 76.400,50.400 77.019,50.400 77.776 C 50.400 78.533,50.220 79.264,50.000 79.400 C 49.445 79.743,49.445 320.257,50.000 320.600 C 50.220 320.736,50.400 321.467,50.400 322.224 C 50.400 322.981,50.580 323.600,50.800 323.600 C 51.020 323.600,51.200 324.140,51.200 324.800 C 51.200 325.460,51.380 326.000,51.600 326.000 C 51.820 326.000,52.000 326.360,52.000 326.800 C 52.000 327.240,52.180 327.600,52.400 327.600 C 52.620 327.600,52.800 327.853,52.800 328.162 C 52.800 328.828,54.468 332.141,54.900 332.333 C 55.065 332.407,55.200 332.772,55.200 333.145 C 55.200 333.518,55.560 334.083,56.000 334.400 C 56.440 334.717,56.800 335.207,56.800 335.488 C 56.800 335.770,56.980 336.000,57.200 336.000 C 57.420 336.000,57.600 336.194,57.600 336.431 C 57.600 337.038,62.893 342.389,63.500 342.395 C 63.775 342.398,64.000 342.580,64.000 342.800 C 64.000 343.020,64.230 343.200,64.512 343.200 C 64.793 343.200,65.283 343.560,65.600 344.000 C 65.917 344.440,66.482 344.800,66.855 344.800 C 67.228 344.800,67.593 344.935,67.667 345.100 C 67.859 345.532,71.172 347.200,71.838 347.200 C 72.147 347.200,72.400 347.380,72.400 347.600 C 72.400 347.820,72.760 348.000,73.200 348.000 C 73.640 348.000,74.000 348.180,74.000 348.400 C 74.000 348.620,74.540 348.800,75.200 348.800 C 75.860 348.800,76.400 348.980,76.400 349.200 C 76.400 349.420,77.019 349.600,77.776 349.600 C 78.533 349.600,79.264 349.780,79.400 350.000 C 79.743 350.555,320.257 350.555,320.600 350.000 C 320.736 349.780,321.467 349.600,322.224 349.600 C 322.981 349.600,323.600 349.420,323.600 349.200 C 323.600 348.980,324.140 348.800,324.800 348.800 C 325.460 348.800,326.000 348.620,326.000 348.400 C 326.000 348.180,326.360 348.000,326.800 348.000 C 327.240 348.000,327.600 347.820,327.600 347.600 C 327.600 347.380,327.853 347.200,328.162 347.200 C 328.828 347.200,332.141 345.532,332.333 345.100 C 332.407 344.935,332.772 344.800,333.145 344.800 C 333.518 344.800,334.083 344.440,334.400 344.000 C 334.717 343.560,335.207 343.200,335.488 343.200 C 335.770 343.200,336.000 343.020,336.000 342.800 C 336.000 342.580,336.225 342.397,336.500 342.393 C 337.131 342.384,342.400 337.090,342.400 336.464 C 342.400 336.209,342.580 336.000,342.800 336.000 C 343.020 336.000,343.200 335.770,343.200 335.488 C 343.200 335.207,343.560 334.717,344.000 334.400 C 344.440 334.083,344.800 333.518,344.800 333.145 C 344.800 332.772,344.935 332.407,345.100 332.333 C 345.532 332.141,347.200 328.828,347.200 328.162 C 347.200 327.853,347.380 327.600,347.600 327.600 C 347.820 327.600,348.000 327.240,348.000 326.800 C 348.000 326.360,348.180 326.000,348.400 326.000 C 348.620 326.000,348.800 325.460,348.800 324.800 C 348.800 324.140,348.980 323.600,349.200 323.600 C 349.420 323.600,349.600 322.981,349.600 322.224 C 349.600 321.467,349.780 320.736,350.000 320.600 C 350.555 320.257,350.555 79.743,350.000 79.400 C 349.780 79.264,349.600 78.533,349.600 77.776 C 349.600 77.019,349.420 76.400,349.200 76.400 C 348.980 76.400,348.800 75.860,348.800 75.200 C 348.800 74.540,348.620 74.000,348.400 74.000 C 348.180 74.000,348.000 73.640,348.000 73.200 C 348.000 72.760,347.820 72.400,347.600 72.400 C 347.380 72.400,347.200 72.147,347.200 71.838 C 347.200 71.172,345.532 67.859,345.100 67.667 C 344.935 67.593,344.800 67.228,344.800 66.855 C 344.800 66.482,344.440 65.917,344.000 65.600 C 343.560 65.283,343.200 64.793,343.200 64.512 C 343.200 64.230,343.020 64.000,342.800 64.000 C 342.580 64.000,342.400 63.776,342.400 63.503 C 342.400 62.874,336.114 56.800,335.462 56.800 C 335.195 56.800,334.717 56.440,334.400 56.000 C 334.083 55.560,333.503 55.200,333.112 55.200 C 332.720 55.200,332.400 55.020,332.400 54.800 C 332.400 54.580,332.175 54.396,331.900 54.391 C 331.625 54.386,330.950 54.030,330.400 53.600 C 329.850 53.170,328.995 52.814,328.500 52.809 C 328.005 52.804,327.600 52.620,327.600 52.400 C 327.600 52.180,327.240 52.000,326.800 52.000 C 326.360 52.000,326.000 51.820,326.000 51.600 C 326.000 51.380,325.460 51.200,324.800 51.200 C 324.140 51.200,323.600 51.020,323.600 50.800 C 323.600 50.580,322.981 50.400,322.224 50.400 C 321.467 50.400,320.736 50.220,320.600 50.000 C 320.257 49.445,79.743 49.445,79.400 50.000 M141.505 125.153 C 141.887 125.348,142.740 125.753,143.400 126.053 C 144.940 126.755,141.647 123.569,172.594 154.300 C 187.493 169.095,199.884 181.200,200.128 181.200 C 200.373 181.200,212.639 169.142,227.387 154.405 C 252.963 128.845,256.385 125.600,257.755 125.600 C 258.084 125.600,258.464 125.420,258.600 125.200 C 258.736 124.979,260.530 124.800,262.600 124.800 C 264.670 124.800,266.464 124.979,266.600 125.200 C 266.736 125.420,267.197 125.600,267.624 125.600 C 268.051 125.600,268.400 125.780,268.400 126.000 C 268.400 126.220,268.663 126.400,268.984 126.400 C 269.778 126.400,273.270 129.920,273.947 131.402 C 274.247 132.061,274.652 132.913,274.847 133.295 C 275.306 134.197,275.306 140.603,274.847 141.505 C 274.652 141.887,274.247 142.740,273.947 143.400 C 273.159 145.129,273.451 144.826,244.901 173.546 C 230.546 187.986,218.801 199.915,218.801 200.055 C 218.800 200.195,230.905 212.502,245.700 227.404 C 276.486 258.412,273.248 255.065,273.947 256.600 C 274.247 257.260,274.652 258.113,274.847 258.495 C 275.041 258.877,275.200 260.724,275.200 262.600 C 275.200 264.476,275.041 266.323,274.847 266.705 C 274.652 267.087,274.247 267.940,273.947 268.600 C 273.646 269.260,272.590 270.610,271.600 271.600 C 270.610 272.590,269.260 273.646,268.600 273.947 C 267.940 274.247,267.087 274.652,266.705 274.847 C 266.323 275.041,264.476 275.200,262.600 275.200 C 260.724 275.200,258.877 275.041,258.495 274.847 C 258.113 274.652,257.260 274.247,256.600 273.947 C 255.024 273.229,257.956 276.075,227.503 245.700 C 212.670 230.905,200.369 218.802,200.167 218.803 C 199.965 218.805,187.985 230.550,173.545 244.903 C 144.802 273.472,145.126 273.160,143.400 273.947 C 142.740 274.247,141.887 274.652,141.505 274.847 C 141.123 275.041,139.276 275.200,137.400 275.200 C 135.524 275.200,133.677 275.041,133.295 274.847 C 132.913 274.652,132.061 274.247,131.402 273.947 C 129.920 273.270,126.400 269.778,126.400 268.984 C 126.400 268.663,126.220 268.400,126.000 268.400 C 125.780 268.400,125.600 268.051,125.600 267.624 C 125.600 267.197,125.420 266.736,125.200 266.600 C 124.979 266.464,124.800 264.670,124.800 262.600 C 124.800 260.530,124.979 258.736,125.200 258.600 C 125.420 258.464,125.600 258.084,125.600 257.755 C 125.600 256.385,128.845 252.963,154.405 227.387 C 169.142 212.639,181.200 200.327,181.200 200.026 C 181.200 199.724,169.095 187.338,154.300 172.501 C 123.885 142.000,126.769 144.972,126.053 143.400 C 125.753 142.740,125.348 141.887,125.153 141.505 C 124.660 140.535,124.701 133.600,125.200 133.600 C 125.420 133.600,125.600 133.366,125.600 133.080 C 125.600 132.344,126.541 130.407,126.900 130.403 C 127.065 130.401,127.200 130.206,127.200 129.969 C 127.200 129.732,127.726 129.012,128.369 128.369 C 129.012 127.726,129.732 127.200,129.969 127.200 C 130.206 127.200,130.401 127.065,130.403 126.900 C 130.407 126.541,132.344 125.600,133.080 125.600 C 133.366 125.600,133.600 125.420,133.600 125.200 C 133.600 124.701,140.535 124.660,141.505 125.153 " stroke="none" fill="#fc5454" fill-rule="evenodd"></path><path id="path2" d="M249.194 132.700 L 243.800 138.200 249.300 132.806 C 252.325 129.839,254.800 127.364,254.800 127.306 C 254.800 127.019,254.206 127.591,249.194 132.700 M127.200 145.325 C 127.200 145.394,127.785 145.979,128.500 146.625 L 129.800 147.800 128.625 146.500 C 127.530 145.288,127.200 145.016,127.200 145.325 M231.392 150.500 L 227.400 154.600 231.500 150.608 C 233.755 148.412,235.600 146.567,235.600 146.508 C 235.600 146.218,235.101 146.692,231.392 150.500 M132.459 150.711 C 132.965 151.321,133.924 152.252,134.589 152.779 C 135.255 153.306,134.907 152.807,133.815 151.669 C 131.649 149.411,131.007 148.958,132.459 150.711 M217.878 163.813 C 217.260 164.356,216.914 164.800,217.108 164.800 C 217.302 164.800,217.883 164.350,218.400 163.800 C 219.595 162.528,219.331 162.534,217.878 163.813 M147.234 165.447 C 147.765 166.133,148.280 166.623,148.379 166.535 C 148.477 166.447,148.043 165.886,147.413 165.288 L 146.269 164.200 147.234 165.447 M185.212 167.080 C 188.425 170.408,189.260 171.200,189.552 171.200 C 189.679 171.200,188.260 169.670,186.400 167.800 C 184.540 165.930,182.929 164.400,182.820 164.400 C 182.712 164.400,183.788 165.606,185.212 167.080 M150.200 168.400 C 151.059 169.280,151.852 170.000,151.962 170.000 C 152.072 170.000,151.459 169.280,150.600 168.400 C 149.741 167.520,148.948 166.800,148.838 166.800 C 148.728 166.800,149.341 167.520,150.200 168.400 M213.634 168.153 L 212.669 169.400 213.813 168.312 C 214.443 167.714,214.877 167.153,214.779 167.065 C 214.680 166.977,214.165 167.467,213.634 168.153 M152.033 170.500 C 152.125 170.555,152.740 171.050,153.400 171.600 L 154.600 172.600 153.630 171.500 C 153.097 170.895,152.482 170.400,152.264 170.400 C 152.045 170.400,151.942 170.445,152.033 170.500 M238.600 179.444 C 235.312 182.995,235.335 183.070,238.711 179.811 C 240.300 178.277,241.600 176.972,241.600 176.911 C 241.600 176.428,240.647 177.232,238.600 179.444 M195.600 177.316 C 195.600 177.768,199.631 181.600,200.107 181.600 C 200.342 181.600,200.454 181.555,200.357 181.500 C 200.261 181.445,199.151 180.416,197.891 179.214 C 196.631 178.011,195.600 177.157,195.600 177.316 M203.078 178.613 C 202.460 179.156,202.114 179.600,202.308 179.600 C 202.502 179.600,203.083 179.150,203.600 178.600 C 204.795 177.328,204.531 177.334,203.078 178.613 M231.076 187.050 C 228.697 189.379,226.816 191.350,226.896 191.429 C 226.975 191.508,229.008 189.599,231.413 187.187 C 233.818 184.774,235.699 182.803,235.593 182.807 C 235.487 182.811,233.454 184.720,231.076 187.050 M221.600 196.476 C 219.950 198.248,218.600 199.840,218.600 200.014 C 218.600 200.431,223.878 206.000,224.273 206.000 C 224.442 206.000,223.239 204.650,221.599 202.999 L 218.619 199.999 222.001 196.599 C 223.861 194.730,225.206 193.212,224.991 193.227 C 224.776 193.242,223.250 194.704,221.600 196.476 M178.434 203.353 L 177.469 204.600 178.613 203.512 C 179.243 202.914,179.677 202.353,179.579 202.265 C 179.480 202.177,178.965 202.667,178.434 203.353 M167.878 213.813 C 167.260 214.356,166.914 214.800,167.108 214.800 C 167.302 214.800,167.883 214.350,168.400 213.800 C 169.595 212.528,169.331 212.534,167.878 213.813 M234.000 215.800 C 234.746 216.570,235.447 217.200,235.557 217.200 C 235.667 217.200,235.146 216.570,234.400 215.800 C 233.654 215.030,232.953 214.400,232.843 214.400 C 232.733 214.400,233.254 215.030,234.000 215.800 M163.634 218.153 L 162.669 219.400 163.813 218.312 C 164.443 217.714,164.877 217.153,164.779 217.065 C 164.680 216.977,164.165 217.467,163.634 218.153 M236.000 217.712 C 236.000 217.850,236.450 218.414,237.000 218.964 C 237.550 219.514,238.000 219.823,238.000 219.652 C 238.000 219.480,237.550 218.917,237.000 218.400 C 236.450 217.883,236.000 217.574,236.000 217.712 M196.500 221.601 C 194.685 223.350,193.200 224.915,193.200 225.081 C 193.200 225.247,194.696 223.894,196.525 222.075 C 199.097 219.516,200.025 218.825,200.625 219.021 C 201.258 219.229,201.290 219.196,200.800 218.844 C 199.945 218.229,200.112 218.122,196.500 221.601 M183.889 234.119 C 179.978 238.075,176.836 241.370,176.908 241.441 C 176.979 241.512,180.357 238.247,184.415 234.185 C 188.472 230.123,191.614 226.828,191.396 226.863 C 191.178 226.898,187.800 230.163,183.889 234.119 M147.792 234.100 L 143.800 238.200 147.900 234.208 C 150.155 232.012,152.000 230.167,152.000 230.108 C 152.000 229.818,151.501 230.292,147.792 234.100 M133.195 248.700 L 127.000 255.000 133.300 248.805 C 136.765 245.398,139.600 242.563,139.600 242.505 C 139.600 242.219,138.951 242.847,133.195 248.700 M232.459 250.711 C 232.965 251.321,233.924 252.252,234.589 252.779 C 235.255 253.306,234.907 252.807,233.815 251.669 C 231.649 249.411,231.007 248.958,232.459 250.711 M270.400 252.258 C 270.400 252.474,270.985 253.179,271.700 253.825 L 273.000 255.000 271.800 253.602 C 271.140 252.833,270.555 252.128,270.500 252.035 C 270.445 251.943,270.400 252.043,270.400 252.258 M247.234 265.447 C 247.765 266.133,248.280 266.623,248.379 266.535 C 248.477 266.447,248.043 265.886,247.413 265.288 L 246.269 264.200 247.234 265.447 M250.200 268.400 C 251.059 269.280,251.852 270.000,251.962 270.000 C 252.072 270.000,251.459 269.280,250.600 268.400 C 249.741 267.520,248.948 266.800,248.838 266.800 C 248.728 266.800,249.341 267.520,250.200 268.400 M252.035 270.500 C 252.128 270.555,252.833 271.140,253.602 271.800 L 255.000 273.000 253.825 271.700 C 253.179 270.985,252.474 270.400,252.258 270.400 C 252.043 270.400,251.943 270.445,252.035 270.500 M271.375 271.700 L 270.200 273.000 271.500 271.825 C 272.712 270.730,272.984 270.400,272.675 270.400 C 272.606 270.400,272.021 270.985,271.375 271.700 " stroke="none" fill="#fc7878" fill-rule="evenodd"></path><path id="path3" d="M136.100 125.091 C 136.925 125.178,138.275 125.178,139.100 125.091 C 139.925 125.005,139.250 124.934,137.600 124.934 C 135.950 124.934,135.275 125.005,136.100 125.091 M260.900 125.091 C 261.725 125.178,263.075 125.178,263.900 125.091 C 264.725 125.005,264.050 124.934,262.400 124.934 C 260.750 124.934,260.075 125.005,260.900 125.091 M271.200 128.600 C 271.946 129.370,272.647 130.000,272.757 130.000 C 272.867 130.000,272.346 129.370,271.600 128.600 C 270.854 127.830,270.153 127.200,270.043 127.200 C 269.933 127.200,270.454 127.830,271.200 128.600 M124.934 137.600 C 124.934 139.250,125.005 139.925,125.091 139.100 C 125.178 138.275,125.178 136.925,125.091 136.100 C 125.005 135.275,124.934 135.950,124.934 137.600 M274.934 137.600 C 274.934 139.250,275.005 139.925,275.091 139.100 C 275.178 138.275,275.178 136.925,275.091 136.100 C 275.005 135.275,274.934 135.950,274.934 137.600 M266.981 150.900 L 265.400 152.600 267.100 151.019 C 268.681 149.548,268.984 149.200,268.681 149.200 C 268.616 149.200,267.851 149.965,266.981 150.900 M184.600 166.800 C 186.128 168.340,187.469 169.600,187.579 169.600 C 187.689 169.600,186.528 168.340,185.000 166.800 C 183.472 165.260,182.131 164.000,182.021 164.000 C 181.911 164.000,183.072 165.260,184.600 166.800 M250.581 167.300 L 249.000 169.000 250.700 167.419 C 252.281 165.948,252.584 165.600,252.281 165.600 C 252.216 165.600,251.451 166.365,250.581 167.300 M233.792 184.100 L 230.200 187.800 233.900 184.208 C 237.336 180.872,237.782 180.400,237.492 180.400 C 237.432 180.400,235.767 182.065,233.792 184.100 M220.197 197.603 L 217.818 200.007 219.603 201.703 L 221.387 203.400 219.809 201.697 L 218.231 199.994 220.603 197.597 C 221.908 196.279,222.885 195.200,222.775 195.200 C 222.665 195.200,221.505 196.282,220.197 197.603 M233.800 216.000 C 234.883 217.100,235.860 218.000,235.970 218.000 C 236.080 218.000,235.283 217.100,234.200 216.000 C 233.117 214.900,232.140 214.000,232.030 214.000 C 231.920 214.000,232.717 214.900,233.800 216.000 M197.387 220.500 L 195.000 223.000 197.460 220.652 C 199.050 219.135,200.098 218.413,200.422 218.614 C 200.747 218.814,200.823 218.761,200.638 218.462 C 200.171 217.706,199.884 217.886,197.387 220.500 M185.000 232.800 C 182.367 235.440,180.303 237.600,180.413 237.600 C 180.523 237.600,182.767 235.440,185.400 232.800 C 188.033 230.160,190.097 228.000,189.987 228.000 C 189.877 228.000,187.633 230.160,185.000 232.800 M166.981 250.900 L 165.400 252.600 167.100 251.019 C 168.681 249.548,168.984 249.200,168.681 249.200 C 168.616 249.200,167.851 249.965,166.981 250.900 M124.934 262.400 C 124.934 264.050,125.005 264.725,125.091 263.900 C 125.178 263.075,125.178 261.725,125.091 260.900 C 125.005 260.075,124.934 260.750,124.934 262.400 M274.937 262.600 C 274.939 264.360,275.009 265.030,275.093 264.089 C 275.178 263.149,275.177 261.709,275.091 260.889 C 275.005 260.070,274.936 260.840,274.937 262.600 M128.400 271.400 C 129.146 272.170,129.847 272.800,129.957 272.800 C 130.067 272.800,129.546 272.170,128.800 271.400 C 128.054 270.630,127.353 270.000,127.243 270.000 C 127.133 270.000,127.654 270.630,128.400 271.400 M271.178 271.500 L 269.800 273.000 271.300 271.622 C 272.696 270.338,272.984 270.000,272.678 270.000 C 272.612 270.000,271.937 270.675,271.178 271.500 M136.100 275.091 C 136.925 275.178,138.275 275.178,139.100 275.091 C 139.925 275.005,139.250 274.934,137.600 274.934 C 135.950 274.934,135.275 275.005,136.100 275.091 M261.111 275.093 C 262.051 275.178,263.491 275.177,264.311 275.091 C 265.130 275.005,264.360 274.936,262.600 274.937 C 260.840 274.939,260.170 275.009,261.111 275.093 " stroke="none" fill="#fc9494" fill-rule="evenodd"></path><path id="path4" d="M256.300 126.629 C 254.805 127.440,254.896 127.778,256.400 127.000 C 257.060 126.659,257.600 126.294,257.600 126.190 C 257.600 125.932,257.557 125.947,256.300 126.629 M129.180 128.266 C 128.288 129.072,127.373 130.107,127.147 130.566 C 126.920 131.024,127.207 130.822,127.784 130.116 C 128.361 129.410,129.410 128.377,130.116 127.821 C 130.822 127.264,131.266 126.807,131.101 126.804 C 130.937 126.802,130.072 127.459,129.180 128.266 M270.449 128.334 C 271.467 129.239,272.607 130.628,272.984 131.422 C 273.360 132.216,273.758 132.776,273.867 132.667 C 274.385 132.149,271.031 127.955,269.434 127.124 C 268.976 126.885,269.432 127.429,270.449 128.334 M172.852 155.500 C 201.859 184.448,200.035 182.739,200.840 181.713 C 201.354 181.058,201.341 181.047,200.673 181.572 C 200.003 182.098,197.852 180.050,173.272 155.472 C 158.601 140.802,146.485 128.800,146.347 128.800 C 146.209 128.800,158.136 140.815,172.852 155.500 M240.991 141.209 C 239.912 142.304,239.163 143.200,239.326 143.200 C 239.730 143.200,243.318 139.584,243.114 139.381 C 243.025 139.292,242.069 140.114,240.991 141.209 M265.096 152.200 C 261.409 155.940,249.259 168.180,238.097 179.400 C 226.184 191.374,229.029 188.613,244.984 172.716 C 259.934 157.821,272.084 145.581,271.983 145.516 C 271.882 145.452,268.783 148.460,265.096 152.200 M128.800 146.312 C 128.800 146.504,129.250 147.083,129.800 147.600 C 130.350 148.117,130.800 148.410,130.800 148.252 C 130.800 148.093,130.350 147.514,129.800 146.964 C 129.250 146.414,128.800 146.120,128.800 146.312 M132.800 150.356 C 132.800 150.735,134.755 152.599,134.911 152.368 C 134.974 152.276,134.524 151.716,133.912 151.126 C 133.301 150.535,132.800 150.188,132.800 150.356 M229.668 152.527 C 228.435 153.840,228.587 154.249,229.842 152.994 C 230.416 152.421,230.806 151.873,230.711 151.777 C 230.615 151.682,230.146 152.019,229.668 152.527 M224.187 158.013 C 222.002 160.206,220.349 162.000,220.513 162.000 C 220.911 162.000,228.515 154.382,228.316 154.182 C 228.230 154.096,226.372 155.820,224.187 158.013 M143.400 161.200 C 148.856 166.665,151.238 168.853,148.770 166.131 C 146.428 163.549,137.980 155.200,137.709 155.200 C 137.545 155.200,140.106 157.900,143.400 161.200 M217.170 165.100 L 216.200 166.200 217.400 165.200 C 218.060 164.650,218.675 164.155,218.767 164.100 C 218.858 164.045,218.755 164.000,218.536 164.000 C 218.318 164.000,217.703 164.495,217.170 165.100 M214.801 167.398 C 214.286 167.948,213.939 168.464,214.032 168.546 C 214.124 168.628,214.619 168.178,215.130 167.547 C 216.276 166.135,216.074 166.044,214.801 167.398 M166.771 184.488 C 180.917 198.714,182.097 200.004,181.571 200.673 C 181.047 201.341,181.058 201.354,181.713 200.840 C 182.106 200.532,182.376 200.128,182.313 199.942 C 182.184 199.558,154.301 171.525,152.545 170.015 C 151.915 169.473,158.317 175.986,166.771 184.488 M206.580 175.701 C 203.731 178.601,201.926 180.530,202.570 179.987 C 204.585 178.286,212.079 170.746,211.916 170.583 C 211.831 170.497,209.430 172.801,206.580 175.701 M218.016 200.484 C 218.427 201.118,271.200 253.863,271.200 253.640 C 271.200 253.507,259.192 241.428,244.516 226.799 C 229.840 212.169,217.915 200.328,218.016 200.484 M175.400 206.800 C 172.546 209.660,170.346 212.000,170.510 212.000 C 170.783 212.000,177.663 205.214,179.970 202.670 C 182.327 200.070,180.171 202.018,175.400 206.800 M167.170 215.100 L 166.200 216.200 167.400 215.200 C 168.060 214.650,168.675 214.155,168.767 214.100 C 168.858 214.045,168.755 214.000,168.536 214.000 C 168.318 214.000,167.703 214.495,167.170 215.100 M164.801 217.398 C 164.286 217.948,163.939 218.464,164.032 218.546 C 164.124 218.628,164.619 218.178,165.130 217.547 C 166.276 216.135,166.074 216.044,164.801 217.398 M172.384 245.002 C 157.526 259.851,145.466 272.000,145.586 272.000 C 145.705 272.000,157.951 259.850,172.800 245.000 C 187.649 230.150,199.708 218.001,199.599 218.002 C 199.489 218.003,187.243 230.153,172.384 245.002 M216.198 233.916 C 224.997 242.762,232.273 250.000,232.368 250.000 C 232.688 250.000,201.381 218.592,200.486 218.016 C 200.329 217.914,207.399 225.069,216.198 233.916 M157.787 224.413 C 155.602 226.606,153.949 228.400,154.113 228.400 C 154.511 228.400,162.115 220.782,161.916 220.582 C 161.830 220.496,159.972 222.220,157.787 224.413 M152.400 229.800 C 151.883 230.350,151.590 230.800,151.748 230.800 C 151.907 230.800,152.486 230.350,153.036 229.800 C 153.586 229.250,153.880 228.800,153.688 228.800 C 153.496 228.800,152.917 229.250,152.400 229.800 M140.991 241.209 C 139.912 242.304,139.163 243.200,139.326 243.200 C 139.730 243.200,143.318 239.584,143.114 239.381 C 143.025 239.292,142.069 240.114,140.991 241.209 M242.196 259.914 C 246.154 263.921,249.470 267.200,249.566 267.200 C 249.964 267.200,238.807 255.904,236.146 253.614 C 235.516 253.071,238.238 255.906,242.196 259.914 M126.600 256.400 C 126.259 257.060,126.069 257.600,126.179 257.600 C 126.289 257.600,126.659 257.060,127.000 256.400 C 127.341 255.740,127.531 255.200,127.421 255.200 C 127.311 255.200,126.941 255.740,126.600 256.400 M272.526 269.342 C 271.850 270.301,270.601 271.596,269.749 272.220 C 267.651 273.759,267.212 274.195,268.358 273.604 C 269.760 272.881,272.490 270.259,273.323 268.835 C 274.364 267.056,273.954 267.316,272.526 269.342 M127.124 269.434 C 127.955 271.031,132.149 274.385,132.667 273.867 C 132.776 273.758,132.216 273.360,131.422 272.984 C 130.628 272.607,129.239 271.467,128.334 270.449 C 127.429 269.432,126.885 268.976,127.124 269.434 M252.488 270.213 C 253.086 270.843,253.647 271.277,253.735 271.179 C 253.823 271.080,253.333 270.565,252.647 270.034 L 251.400 269.069 252.488 270.213 " stroke="none" fill="#fcc4c4" fill-rule="evenodd"></path></g></svg>