<svg id="svg" version="1.1" xmlns="http://www.w3.org/2000/svg" xmlns:xlink="http://www.w3.org/1999/xlink" width="400" height="400" viewBox="0, 0, 400,400"><g id="svgg"><path id="path0" d="M272.400 138.057 C 271.630 138.269,270.370 138.722,269.600 139.064 C 268.717 139.456,252.255 155.614,224.998 182.843 C 201.236 206.579,181.573 226.000,181.301 226.000 C 181.029 226.000,172.737 217.945,162.875 208.100 C 153.013 198.255,144.236 189.814,143.372 189.342 C 138.340 186.595,132.763 187.476,128.753 191.649 C 127.329 193.131,126.910 193.845,125.656 196.919 C 125.070 198.357,125.070 201.643,125.656 203.081 C 125.907 203.697,126.377 204.830,126.700 205.600 C 127.357 207.163,172.426 252.625,174.800 254.119 C 178.730 256.592,183.055 256.656,187.437 254.307 C 189.054 253.441,284.642 157.853,285.508 156.236 C 290.562 146.807,282.293 135.338,272.400 138.057 " stroke="none" fill="#fbfbfb" fill-rule="evenodd"></path><path id="path1" d="M184.800 50.000 C 184.800 50.233,183.475 50.400,181.624 50.400 C 179.877 50.400,178.336 50.580,178.200 50.800 C 178.064 51.020,176.883 51.200,175.576 51.200 C 174.259 51.200,173.200 51.378,173.200 51.600 C 173.200 51.820,172.300 52.000,171.200 52.000 C 170.100 52.000,169.200 52.180,169.200 52.400 C 169.200 52.620,168.401 52.800,167.424 52.800 C 166.447 52.800,165.536 52.980,165.400 53.200 C 165.264 53.420,164.533 53.600,163.776 53.600 C 163.019 53.600,162.400 53.780,162.400 54.000 C 162.400 54.220,161.781 54.400,161.024 54.400 C 160.267 54.400,159.536 54.580,159.400 54.800 C 159.264 55.020,158.623 55.200,157.976 55.200 C 157.329 55.200,156.800 55.380,156.800 55.600 C 156.800 55.820,156.260 56.000,155.600 56.000 C 154.940 56.000,154.400 56.180,154.400 56.400 C 154.400 56.620,153.860 56.800,153.200 56.800 C 152.540 56.800,152.000 56.980,152.000 57.200 C 152.000 57.420,151.460 57.600,150.800 57.600 C 150.140 57.600,149.600 57.780,149.600 58.000 C 149.600 58.220,149.096 58.400,148.480 58.400 C 147.864 58.400,147.144 58.616,146.880 58.880 C 146.616 59.144,146.400 59.244,146.400 59.103 C 146.400 58.961,145.115 59.375,143.545 60.023 C 141.975 60.670,140.445 61.200,140.145 61.200 C 139.845 61.200,139.600 61.380,139.600 61.600 C 139.600 61.820,139.240 62.000,138.800 62.000 C 138.360 62.000,138.000 62.180,138.000 62.400 C 138.000 62.620,137.640 62.800,137.200 62.800 C 136.760 62.800,136.400 62.980,136.400 63.200 C 136.400 63.420,136.175 63.599,135.900 63.597 C 135.380 63.593,128.751 66.798,128.400 67.222 C 128.290 67.355,127.615 67.719,126.900 68.030 C 126.185 68.341,125.600 68.731,125.600 68.898 C 125.600 69.064,125.280 69.200,124.888 69.200 C 124.497 69.200,123.917 69.560,123.600 70.000 C 123.283 70.440,122.703 70.800,122.312 70.800 C 121.920 70.800,121.600 70.980,121.600 71.200 C 121.600 71.420,121.280 71.600,120.888 71.600 C 120.497 71.600,119.917 71.960,119.600 72.400 C 119.283 72.840,118.743 73.200,118.400 73.200 C 118.057 73.200,117.517 73.560,117.200 74.000 C 116.883 74.440,116.386 74.800,116.095 74.800 C 115.804 74.800,115.349 74.981,115.083 75.201 C 114.817 75.422,113.610 76.262,112.400 77.069 C 111.190 77.875,109.909 78.864,109.553 79.267 C 109.197 79.670,108.731 80.000,108.517 80.000 C 108.303 80.000,107.270 80.810,106.222 81.800 C 105.174 82.790,104.159 83.600,103.967 83.600 C 103.775 83.600,102.627 84.590,101.417 85.800 C 100.207 87.010,99.126 88.000,99.013 88.000 C 98.415 88.000,91.031 95.219,88.789 97.996 C 88.025 98.942,86.455 100.676,85.300 101.849 C 84.145 103.023,83.200 104.184,83.200 104.431 C 83.200 104.677,82.701 105.356,82.091 105.940 C 80.679 107.290,76.575 112.778,75.948 114.153 C 75.686 114.729,75.320 115.200,75.136 115.200 C 74.951 115.200,74.800 115.436,74.800 115.725 C 74.800 116.013,74.440 116.636,74.000 117.108 C 73.560 117.580,73.200 118.204,73.200 118.495 C 73.200 118.786,72.840 119.283,72.400 119.600 C 71.960 119.917,71.600 120.497,71.600 120.888 C 71.600 121.280,71.420 121.600,71.200 121.600 C 70.980 121.600,70.800 121.836,70.800 122.125 C 70.800 122.413,70.440 123.036,70.000 123.508 C 69.560 123.980,69.200 124.644,69.200 124.983 C 69.200 125.322,69.020 125.600,68.800 125.600 C 68.580 125.600,68.400 125.870,68.400 126.200 C 68.400 126.530,68.220 126.800,68.000 126.800 C 67.780 126.800,67.600 127.160,67.600 127.600 C 67.600 128.040,67.420 128.400,67.200 128.400 C 66.980 128.400,66.800 128.745,66.800 129.167 C 66.800 129.588,66.665 129.993,66.500 130.067 C 66.076 130.255,63.600 135.199,63.600 135.856 C 63.600 136.155,63.420 136.400,63.200 136.400 C 62.980 136.400,62.800 136.760,62.800 137.200 C 62.800 137.640,62.620 138.000,62.400 138.000 C 62.180 138.000,62.000 138.360,62.000 138.800 C 62.000 139.240,61.820 139.600,61.600 139.600 C 61.380 139.600,61.200 139.826,61.200 140.103 C 61.200 140.379,60.570 142.210,59.800 144.172 C 59.030 146.133,58.400 148.157,58.400 148.669 C 58.400 149.181,58.220 149.600,58.000 149.600 C 57.780 149.600,57.600 150.140,57.600 150.800 C 57.600 151.460,57.420 152.000,57.200 152.000 C 56.980 152.000,56.800 152.540,56.800 153.200 C 56.800 153.860,56.620 154.400,56.400 154.400 C 56.180 154.400,56.000 154.940,56.000 155.600 C 56.000 156.260,55.820 156.800,55.600 156.800 C 55.380 156.800,55.200 157.329,55.200 157.976 C 55.200 158.623,55.020 159.264,54.800 159.400 C 54.580 159.536,54.400 160.166,54.400 160.800 C 54.400 161.434,54.220 162.064,54.000 162.200 C 53.780 162.336,53.600 163.056,53.600 163.800 C 53.600 164.544,53.420 165.264,53.200 165.400 C 52.980 165.536,52.800 166.447,52.800 167.424 C 52.800 168.401,52.620 169.200,52.400 169.200 C 52.180 169.200,52.000 170.100,52.000 171.200 C 52.000 172.300,51.820 173.200,51.600 173.200 C 51.378 173.200,51.200 174.259,51.200 175.576 C 51.200 176.883,51.020 178.064,50.800 178.200 C 50.580 178.336,50.400 179.776,50.400 181.400 C 50.400 183.024,50.220 184.464,50.000 184.600 C 49.453 184.938,49.453 215.062,50.000 215.400 C 50.220 215.536,50.400 216.976,50.400 218.600 C 50.400 220.224,50.580 221.664,50.800 221.800 C 51.020 221.936,51.200 223.117,51.200 224.424 C 51.200 225.741,51.378 226.800,51.600 226.800 C 51.820 226.800,52.000 227.700,52.000 228.800 C 52.000 229.900,52.180 230.800,52.400 230.800 C 52.620 230.800,52.800 231.599,52.800 232.576 C 52.800 233.553,52.980 234.464,53.200 234.600 C 53.420 234.736,53.600 235.467,53.600 236.224 C 53.600 236.981,53.780 237.600,54.000 237.600 C 54.220 237.600,54.400 238.320,54.400 239.200 C 54.400 240.080,54.580 240.800,54.800 240.800 C 55.020 240.800,55.200 241.340,55.200 242.000 C 55.200 242.660,55.380 243.200,55.600 243.200 C 55.820 243.200,56.000 243.740,56.000 244.400 C 56.000 245.060,56.180 245.600,56.400 245.600 C 56.620 245.600,56.800 246.140,56.800 246.800 C 56.800 247.460,56.980 248.000,57.200 248.000 C 57.420 248.000,57.600 248.540,57.600 249.200 C 57.600 249.860,57.780 250.400,58.000 250.400 C 58.220 250.400,58.400 250.799,58.400 251.287 C 58.400 252.233,59.223 254.727,60.449 257.496 C 60.862 258.428,61.200 259.463,61.200 259.796 C 61.200 260.128,61.380 260.400,61.600 260.400 C 61.820 260.400,62.000 260.760,62.000 261.200 C 62.000 261.640,62.180 262.000,62.400 262.000 C 62.620 262.000,62.800 262.360,62.800 262.800 C 62.800 263.240,62.980 263.600,63.200 263.600 C 63.420 263.600,63.600 263.853,63.600 264.162 C 63.600 264.828,65.268 268.141,65.700 268.333 C 65.865 268.407,66.000 268.724,66.000 269.039 C 66.000 269.599,66.772 271.203,67.232 271.600 C 67.360 271.710,67.719 272.385,68.030 273.100 C 68.341 273.815,68.731 274.400,68.898 274.400 C 69.064 274.400,69.200 274.678,69.200 275.017 C 69.200 275.356,69.560 276.020,70.000 276.492 C 70.440 276.964,70.800 277.587,70.800 277.875 C 70.800 278.164,70.980 278.400,71.200 278.400 C 71.420 278.400,71.600 278.720,71.600 279.112 C 71.600 279.503,71.960 280.083,72.400 280.400 C 72.840 280.717,73.200 281.257,73.200 281.600 C 73.200 281.943,73.560 282.483,74.000 282.800 C 74.440 283.117,74.800 283.682,74.800 284.055 C 74.800 284.428,74.935 284.793,75.100 284.867 C 75.265 284.940,76.253 286.260,77.294 287.800 C 79.774 291.464,80.766 292.755,82.100 294.052 C 82.705 294.640,83.200 295.305,83.200 295.530 C 83.200 295.755,84.460 297.214,86.000 298.772 C 87.540 300.331,88.800 301.781,88.800 301.995 C 88.800 302.470,97.554 311.200,98.031 311.200 C 98.218 311.200,99.670 312.460,101.256 314.000 C 102.843 315.540,104.307 316.800,104.510 316.800 C 104.713 316.800,105.356 317.301,105.940 317.914 C 106.523 318.526,108.530 320.146,110.400 321.513 C 112.270 322.879,114.152 324.268,114.581 324.599 C 115.011 324.929,115.646 325.200,115.993 325.200 C 116.340 325.200,116.883 325.560,117.200 326.000 C 117.517 326.440,118.057 326.800,118.400 326.800 C 118.743 326.800,119.283 327.160,119.600 327.600 C 119.917 328.040,120.497 328.400,120.888 328.400 C 121.280 328.400,121.600 328.580,121.600 328.800 C 121.600 329.020,121.920 329.200,122.312 329.200 C 122.703 329.200,123.283 329.560,123.600 330.000 C 123.917 330.440,124.497 330.800,124.888 330.800 C 125.280 330.800,125.600 330.946,125.600 331.125 C 125.600 331.304,126.230 331.698,127.000 332.000 C 127.770 332.302,128.400 332.696,128.400 332.875 C 128.400 333.054,128.745 333.200,129.167 333.200 C 129.588 333.200,129.993 333.335,130.067 333.500 C 130.255 333.924,135.199 336.400,135.856 336.400 C 136.155 336.400,136.400 336.580,136.400 336.800 C 136.400 337.020,136.760 337.200,137.200 337.200 C 137.640 337.200,138.000 337.380,138.000 337.600 C 138.000 337.820,138.360 338.000,138.800 338.000 C 139.240 338.000,139.600 338.180,139.600 338.400 C 139.600 338.620,139.872 338.800,140.204 338.800 C 140.537 338.800,141.572 339.140,142.504 339.556 C 145.555 340.915,147.599 341.600,148.608 341.600 C 149.154 341.600,149.600 341.780,149.600 342.000 C 149.600 342.220,150.140 342.400,150.800 342.400 C 151.460 342.400,152.000 342.580,152.000 342.800 C 152.000 343.020,152.540 343.200,153.200 343.200 C 153.860 343.200,154.400 343.380,154.400 343.600 C 154.400 343.820,154.940 344.000,155.600 344.000 C 156.260 344.000,156.800 344.180,156.800 344.400 C 156.800 344.620,157.329 344.800,157.976 344.800 C 158.623 344.800,159.264 344.980,159.400 345.200 C 159.536 345.420,160.267 345.600,161.024 345.600 C 161.781 345.600,162.400 345.780,162.400 346.000 C 162.400 346.220,163.120 346.400,164.000 346.400 C 164.880 346.400,165.600 346.580,165.600 346.800 C 165.600 347.020,166.410 347.200,167.400 347.200 C 168.390 347.200,169.200 347.380,169.200 347.600 C 169.200 347.820,170.089 348.000,171.176 348.000 C 172.263 348.000,173.264 348.180,173.400 348.400 C 173.536 348.620,174.717 348.800,176.024 348.800 C 177.341 348.800,178.400 348.978,178.400 349.200 C 178.400 349.433,179.733 349.600,181.600 349.600 C 183.467 349.600,184.800 349.767,184.800 350.000 C 184.800 350.549,215.061 350.549,215.400 350.000 C 215.536 349.780,216.976 349.600,218.600 349.600 C 220.224 349.600,221.664 349.420,221.800 349.200 C 221.936 348.980,223.117 348.800,224.424 348.800 C 225.741 348.800,226.800 348.622,226.800 348.400 C 226.800 348.180,227.700 348.000,228.800 348.000 C 229.900 348.000,230.800 347.820,230.800 347.600 C 230.800 347.380,231.610 347.200,232.600 347.200 C 233.590 347.200,234.400 347.020,234.400 346.800 C 234.400 346.580,235.109 346.400,235.976 346.400 C 236.843 346.400,237.664 346.220,237.800 346.000 C 237.936 345.780,238.566 345.600,239.200 345.600 C 239.834 345.600,240.464 345.420,240.600 345.200 C 240.736 344.980,241.377 344.800,242.024 344.800 C 242.671 344.800,243.200 344.620,243.200 344.400 C 243.200 344.180,243.740 344.000,244.400 344.000 C 245.060 344.000,245.600 343.820,245.600 343.600 C 245.600 343.380,246.140 343.200,246.800 343.200 C 247.460 343.200,248.000 343.020,248.000 342.800 C 248.000 342.580,248.540 342.400,249.200 342.400 C 249.860 342.400,250.400 342.244,250.400 342.054 C 250.400 341.864,251.206 341.598,252.191 341.463 C 253.176 341.328,254.301 341.055,254.691 340.856 C 255.081 340.656,255.940 340.271,256.600 340.000 C 257.260 339.729,258.113 339.348,258.495 339.153 C 258.877 338.959,259.462 338.800,259.795 338.800 C 260.128 338.800,260.400 338.620,260.400 338.400 C 260.400 338.180,260.760 338.000,261.200 338.000 C 261.640 338.000,262.000 337.820,262.000 337.600 C 262.000 337.380,262.360 337.200,262.800 337.200 C 263.240 337.200,263.600 337.020,263.600 336.800 C 263.600 336.580,263.960 336.400,264.400 336.400 C 264.840 336.400,265.200 336.220,265.200 336.000 C 265.200 335.780,265.453 335.600,265.762 335.600 C 266.428 335.600,269.741 333.932,269.933 333.500 C 270.007 333.335,270.412 333.200,270.833 333.200 C 271.255 333.200,271.600 333.020,271.600 332.800 C 271.600 332.580,271.960 332.400,272.400 332.400 C 272.840 332.400,273.200 332.264,273.200 332.098 C 273.200 331.931,273.785 331.536,274.500 331.220 C 275.215 330.903,276.149 330.320,276.575 329.922 C 277.002 329.525,277.587 329.200,277.875 329.200 C 278.164 329.200,278.400 329.020,278.400 328.800 C 278.400 328.580,278.720 328.400,279.112 328.400 C 279.503 328.400,280.083 328.040,280.400 327.600 C 280.717 327.160,281.231 326.800,281.541 326.800 C 281.852 326.800,282.397 326.469,282.753 326.064 C 283.109 325.659,283.895 325.206,284.500 325.056 C 285.105 324.907,285.600 324.608,285.600 324.392 C 285.600 324.177,285.778 324.000,285.997 324.000 C 286.215 324.000,287.250 323.354,288.297 322.565 C 289.343 321.776,290.727 320.741,291.372 320.265 C 292.017 319.789,293.136 318.815,293.859 318.100 C 294.582 317.385,295.369 316.800,295.609 316.800 C 295.848 316.800,297.104 315.720,298.400 314.400 C 299.696 313.080,300.944 312.000,301.174 312.000 C 301.710 312.000,312.000 301.741,312.000 301.207 C 312.000 300.986,313.080 299.708,314.400 298.368 C 315.720 297.027,316.800 295.748,316.800 295.526 C 316.800 295.303,317.301 294.644,317.914 294.060 C 318.526 293.477,320.146 291.470,321.513 289.600 C 322.879 287.730,324.268 285.848,324.599 285.419 C 324.929 284.989,325.200 284.354,325.200 284.007 C 325.200 283.660,325.560 283.117,326.000 282.800 C 326.440 282.483,326.800 281.943,326.800 281.600 C 326.800 281.257,327.160 280.717,327.600 280.400 C 328.040 280.083,328.400 279.503,328.400 279.112 C 328.400 278.720,328.580 278.400,328.800 278.400 C 329.020 278.400,329.200 278.080,329.200 277.688 C 329.200 277.297,329.560 276.717,330.000 276.400 C 330.440 276.083,330.800 275.503,330.800 275.112 C 330.800 274.720,330.980 274.400,331.200 274.400 C 331.420 274.400,331.600 274.130,331.600 273.800 C 331.600 273.470,331.780 273.200,332.000 273.200 C 332.220 273.200,332.400 272.840,332.400 272.400 C 332.400 271.960,332.580 271.600,332.800 271.600 C 333.020 271.600,333.200 271.255,333.200 270.833 C 333.200 270.412,333.335 270.007,333.500 269.933 C 333.932 269.741,335.600 266.428,335.600 265.762 C 335.600 265.453,335.780 265.200,336.000 265.200 C 336.220 265.200,336.400 264.840,336.400 264.400 C 336.400 263.960,336.580 263.600,336.800 263.600 C 337.020 263.600,337.200 263.240,337.200 262.800 C 337.200 262.360,337.380 262.000,337.600 262.000 C 337.820 262.000,338.000 261.640,338.000 261.200 C 338.000 260.760,338.180 260.400,338.400 260.400 C 338.620 260.400,338.800 260.128,338.800 259.795 C 338.800 259.462,338.959 258.877,339.153 258.495 C 339.348 258.113,339.729 257.260,340.000 256.600 C 340.271 255.940,340.656 255.081,340.856 254.691 C 341.055 254.301,341.328 253.176,341.463 252.191 C 341.598 251.206,341.864 250.400,342.054 250.400 C 342.244 250.400,342.400 249.860,342.400 249.200 C 342.400 248.540,342.580 248.000,342.800 248.000 C 343.020 248.000,343.200 247.460,343.200 246.800 C 343.200 246.140,343.380 245.600,343.600 245.600 C 343.820 245.600,344.000 245.060,344.000 244.400 C 344.000 243.740,344.180 243.200,344.400 243.200 C 344.620 243.200,344.800 242.570,344.800 241.800 C 344.800 241.030,344.980 240.400,345.200 240.400 C 345.420 240.400,345.600 239.871,345.600 239.224 C 345.600 238.577,345.780 237.936,346.000 237.800 C 346.220 237.664,346.400 236.944,346.400 236.200 C 346.400 235.456,346.580 234.736,346.800 234.600 C 347.020 234.464,347.200 233.553,347.200 232.576 C 347.200 231.599,347.380 230.800,347.600 230.800 C 347.820 230.800,348.000 229.900,348.000 228.800 C 348.000 227.700,348.180 226.800,348.400 226.800 C 348.622 226.800,348.800 225.741,348.800 224.424 C 348.800 223.117,348.980 221.936,349.200 221.800 C 349.420 221.664,349.600 220.123,349.600 218.376 C 349.600 216.525,349.767 215.200,350.000 215.200 C 350.260 215.200,350.400 209.867,350.400 200.000 C 350.400 190.133,350.260 184.800,350.000 184.800 C 349.769 184.800,349.600 183.541,349.600 181.824 C 349.600 180.187,349.420 178.736,349.200 178.600 C 348.980 178.464,348.800 177.294,348.800 176.000 C 348.800 174.706,348.620 173.536,348.400 173.400 C 348.180 173.264,348.000 172.263,348.000 171.176 C 348.000 170.089,347.820 169.200,347.600 169.200 C 347.380 169.200,347.200 168.491,347.200 167.624 C 347.200 166.757,347.020 165.936,346.800 165.800 C 346.580 165.664,346.400 164.843,346.400 163.976 C 346.400 163.109,346.220 162.400,346.000 162.400 C 345.780 162.400,345.600 161.871,345.600 161.224 C 345.600 160.577,345.420 159.936,345.200 159.800 C 344.980 159.664,344.800 158.933,344.800 158.176 C 344.800 157.419,344.620 156.800,344.400 156.800 C 344.180 156.800,344.000 156.260,344.000 155.600 C 344.000 154.940,343.820 154.400,343.600 154.400 C 343.380 154.400,343.200 153.860,343.200 153.200 C 343.200 152.540,343.020 152.000,342.800 152.000 C 342.580 152.000,342.400 151.460,342.400 150.800 C 342.400 150.140,342.220 149.600,342.000 149.600 C 341.780 149.600,341.599 149.105,341.598 148.500 C 341.596 147.895,341.326 146.884,340.998 146.254 C 340.669 145.624,340.400 144.769,340.400 144.354 C 340.400 143.939,340.264 143.600,340.098 143.600 C 339.813 143.600,339.630 143.175,338.333 139.500 C 338.042 138.675,337.668 138.000,337.502 138.000 C 337.336 138.000,337.200 137.640,337.200 137.200 C 337.200 136.760,337.020 136.400,336.800 136.400 C 336.580 136.400,336.400 136.166,336.400 135.880 C 336.400 135.144,335.459 133.207,335.100 133.203 C 334.935 133.201,334.800 132.840,334.800 132.400 C 334.800 131.960,334.620 131.600,334.400 131.600 C 334.180 131.600,334.000 131.240,334.000 130.800 C 334.000 130.360,333.820 130.000,333.600 130.000 C 333.380 130.000,333.200 129.640,333.200 129.200 C 333.200 128.760,333.064 128.400,332.898 128.400 C 332.731 128.400,332.336 127.815,332.020 127.100 C 331.703 126.385,331.120 125.451,330.722 125.025 C 330.325 124.598,330.000 124.013,330.000 123.725 C 330.000 123.436,329.820 123.200,329.600 123.200 C 329.380 123.200,329.200 122.840,329.200 122.400 C 329.200 121.960,329.042 121.600,328.849 121.600 C 328.655 121.600,328.273 121.060,328.000 120.400 C 327.727 119.740,327.345 119.200,327.151 119.200 C 326.958 119.200,326.800 118.880,326.800 118.488 C 326.800 118.097,326.440 117.517,326.000 117.200 C 325.560 116.883,325.200 116.376,325.200 116.074 C 325.200 115.772,324.390 114.460,323.400 113.158 C 322.410 111.856,321.600 110.685,321.600 110.556 C 321.600 110.427,321.060 109.817,320.400 109.200 C 319.740 108.583,319.200 107.881,319.200 107.640 C 319.200 107.398,318.480 106.459,317.600 105.552 C 316.720 104.645,316.000 103.748,316.000 103.557 C 316.000 102.650,299.538 86.231,296.381 83.989 C 295.621 83.450,294.478 82.512,293.841 81.904 C 293.203 81.297,292.530 80.800,292.344 80.800 C 292.159 80.800,291.491 80.260,290.860 79.600 C 290.229 78.940,289.599 78.400,289.460 78.400 C 289.240 78.400,286.308 76.332,284.917 75.195 C 284.651 74.978,284.196 74.800,283.905 74.800 C 283.614 74.800,283.117 74.440,282.800 74.000 C 282.483 73.560,281.986 73.200,281.695 73.200 C 281.404 73.200,280.780 72.840,280.308 72.400 C 279.836 71.960,279.213 71.600,278.925 71.600 C 278.636 71.600,278.400 71.420,278.400 71.200 C 278.400 70.980,278.122 70.800,277.783 70.800 C 277.444 70.800,276.806 70.464,276.366 70.054 C 275.925 69.643,274.718 68.878,273.682 68.354 C 272.647 67.829,271.740 67.265,271.667 67.100 C 271.593 66.935,271.188 66.800,270.767 66.800 C 270.345 66.800,270.000 66.620,270.000 66.400 C 270.000 66.180,269.655 66.000,269.233 66.000 C 268.812 66.000,268.407 65.865,268.333 65.700 C 268.141 65.268,264.828 63.600,264.162 63.600 C 263.853 63.600,263.600 63.420,263.600 63.200 C 263.600 62.980,263.240 62.800,262.800 62.800 C 262.360 62.800,262.000 62.620,262.000 62.400 C 262.000 62.180,261.676 62.000,261.280 62.000 C 260.884 62.000,260.389 61.847,260.180 61.660 C 259.771 61.293,254.519 59.161,253.712 59.034 C 253.443 58.991,253.098 58.831,252.945 58.678 C 252.792 58.525,252.157 58.400,251.533 58.400 C 250.910 58.400,250.400 58.220,250.400 58.000 C 250.400 57.780,249.860 57.600,249.200 57.600 C 248.540 57.600,248.000 57.420,248.000 57.200 C 248.000 56.980,247.460 56.800,246.800 56.800 C 246.140 56.800,245.600 56.620,245.600 56.400 C 245.600 56.180,245.060 56.000,244.400 56.000 C 243.740 56.000,243.200 55.820,243.200 55.600 C 243.200 55.380,242.570 55.200,241.800 55.200 C 241.030 55.200,240.400 55.020,240.400 54.800 C 240.400 54.580,239.896 54.400,239.280 54.400 C 238.664 54.400,237.989 54.238,237.780 54.041 C 237.571 53.844,236.635 53.574,235.700 53.441 C 231.463 52.840,230.800 52.694,230.800 52.358 C 230.800 52.161,229.911 52.000,228.824 52.000 C 227.737 52.000,226.736 51.820,226.600 51.600 C 226.464 51.380,225.283 51.200,223.976 51.200 C 222.659 51.200,221.600 51.022,221.600 50.800 C 221.600 50.567,220.267 50.400,218.400 50.400 C 216.533 50.400,215.200 50.233,215.200 50.000 C 215.200 49.740,209.867 49.600,200.000 49.600 C 190.133 49.600,184.800 49.740,184.800 50.000 M279.206 137.697 C 280.083 137.971,280.800 138.331,280.800 138.497 C 280.800 138.664,281.045 138.800,281.344 138.800 C 282.304 138.800,285.471 142.130,286.620 144.347 C 288.210 147.415,288.237 152.495,286.680 155.660 C 285.160 158.749,189.582 254.236,186.704 255.541 C 183.814 256.851,178.306 256.771,175.560 255.380 C 173.788 254.482,130.532 211.877,127.400 207.945 C 126.244 206.494,125.600 205.299,125.600 204.605 C 125.600 204.272,125.420 204.000,125.200 204.000 C 124.960 204.000,124.800 202.400,124.800 200.000 C 124.800 197.600,124.960 196.000,125.200 196.000 C 125.420 196.000,125.600 195.728,125.600 195.395 C 125.600 193.898,129.583 189.432,131.800 188.442 C 132.460 188.148,133.313 187.748,133.695 187.553 C 134.077 187.359,135.834 187.200,137.600 187.200 C 139.366 187.200,141.123 187.359,141.505 187.553 C 141.887 187.748,142.740 188.146,143.400 188.438 C 144.060 188.730,152.661 196.986,162.514 206.784 C 173.845 218.053,180.715 224.600,181.208 224.600 C 181.709 224.600,197.308 209.286,224.906 181.700 C 248.602 158.013,268.132 138.800,268.512 138.800 C 268.890 138.800,269.200 138.657,269.200 138.483 C 269.200 137.388,276.404 136.823,279.206 137.697 " stroke="none" fill="#8ccc44" fill-rule="evenodd"></path><path id="path2" d="M273.491 137.489 C 274.201 137.577,275.461 137.579,276.291 137.492 C 277.121 137.405,276.540 137.333,275.000 137.331 C 273.460 137.329,272.781 137.400,273.491 137.489 M268.800 138.844 C 268.250 139.298,268.026 139.553,268.301 139.410 C 270.606 138.219,270.926 138.006,270.400 138.011 C 270.070 138.015,269.350 138.389,268.800 138.844 M265.385 141.700 L 263.400 143.800 265.500 141.815 C 267.451 139.971,267.783 139.600,267.485 139.600 C 267.422 139.600,266.477 140.545,265.385 141.700 M283.800 141.200 C 284.659 142.080,285.452 142.800,285.562 142.800 C 285.672 142.800,285.059 142.080,284.200 141.200 C 283.341 140.320,282.548 139.600,282.438 139.600 C 282.328 139.600,282.941 140.320,283.800 141.200 M255.394 151.700 L 250.200 157.000 255.500 151.806 C 258.415 148.949,260.800 146.564,260.800 146.506 C 260.800 146.219,260.219 146.777,255.394 151.700 M285.452 156.865 C 284.853 157.780,284.653 158.288,285.008 157.994 C 285.612 157.492,286.985 155.200,286.681 155.200 C 286.605 155.200,286.052 155.949,285.452 156.865 M246.400 160.600 C 245.428 161.590,244.723 162.400,244.833 162.400 C 244.943 162.400,245.828 161.590,246.800 160.600 C 247.772 159.610,248.477 158.800,248.367 158.800 C 248.257 158.800,247.372 159.610,246.400 160.600 M237.400 169.600 C 234.106 172.900,231.500 175.600,231.610 175.600 C 231.720 175.600,234.506 172.900,237.800 169.600 C 241.094 166.300,243.700 163.600,243.590 163.600 C 243.480 163.600,240.694 166.300,237.400 169.600 M221.878 185.013 C 221.260 185.556,220.914 186.000,221.108 186.000 C 221.302 186.000,221.883 185.550,222.400 185.000 C 223.595 183.728,223.331 183.734,221.878 185.013 M136.100 187.491 C 136.925 187.578,138.275 187.578,139.100 187.491 C 139.925 187.405,139.250 187.334,137.600 187.334 C 135.950 187.334,135.275 187.405,136.100 187.491 M216.034 190.953 L 215.069 192.200 216.213 191.112 C 216.843 190.514,217.277 189.953,217.179 189.865 C 217.080 189.777,216.565 190.267,216.034 190.953 M152.067 196.700 C 152.328 197.085,153.455 198.203,154.571 199.184 C 156.544 200.918,156.534 200.899,154.213 198.484 C 151.732 195.903,151.264 195.514,152.067 196.700 M205.478 201.413 C 204.860 201.956,204.514 202.400,204.708 202.400 C 204.902 202.400,205.483 201.950,206.000 201.400 C 207.195 200.128,206.931 200.134,205.478 201.413 M201.234 205.753 L 200.269 207.000 201.413 205.912 C 202.043 205.314,202.477 204.753,202.379 204.665 C 202.280 204.577,201.765 205.067,201.234 205.753 M150.200 230.800 C 162.959 243.560,173.487 254.000,173.597 254.000 C 173.707 254.000,163.359 243.560,150.600 230.800 C 137.841 218.040,127.313 207.600,127.203 207.600 C 127.093 207.600,137.441 218.040,150.200 230.800 M197.234 209.753 L 196.269 211.000 197.413 209.912 C 198.043 209.314,198.477 208.753,198.379 208.665 C 198.280 208.577,197.765 209.067,197.234 209.753 M172.600 217.200 C 176.555 221.160,179.882 224.400,179.992 224.400 C 180.102 224.400,176.955 221.160,173.000 217.200 C 169.045 213.240,165.718 210.000,165.608 210.000 C 165.498 210.000,168.645 213.240,172.600 217.200 M184.834 222.153 L 183.869 223.400 185.013 222.312 C 185.643 221.714,186.077 221.153,185.979 221.065 C 185.880 220.977,185.365 221.467,184.834 222.153 " stroke="none" fill="#a4d468" fill-rule="evenodd"></path><path id="path3" d="M244.799 161.900 L 223.400 183.400 244.900 162.001 C 256.725 150.232,266.400 140.557,266.400 140.501 C 266.400 140.220,264.689 141.915,244.799 161.900 M287.693 150.000 C 287.693 150.770,287.775 151.085,287.876 150.700 C 287.976 150.315,287.976 149.685,287.876 149.300 C 287.775 148.915,287.693 149.230,287.693 150.000 M218.800 187.800 C 217.828 188.790,217.123 189.600,217.233 189.600 C 217.343 189.600,218.228 188.790,219.200 187.800 C 220.172 186.810,220.877 186.000,220.767 186.000 C 220.657 186.000,219.772 186.810,218.800 187.800 M253.600 189.400 C 252.628 190.390,251.923 191.200,252.033 191.200 C 252.143 191.200,253.028 190.390,254.000 189.400 C 254.972 188.410,255.677 187.600,255.567 187.600 C 255.457 187.600,254.572 188.410,253.600 189.400 M210.600 196.000 C 207.306 199.300,204.700 202.000,204.810 202.000 C 204.920 202.000,207.706 199.300,211.000 196.000 C 214.294 192.700,216.900 190.000,216.790 190.000 C 216.680 190.000,213.894 192.700,210.600 196.000 M238.985 204.100 L 237.000 206.200 239.100 204.215 C 241.051 202.371,241.383 202.000,241.085 202.000 C 241.022 202.000,240.077 202.945,238.985 204.100 M200.000 206.600 C 199.028 207.590,198.323 208.400,198.433 208.400 C 198.543 208.400,199.428 207.590,200.400 206.600 C 201.372 205.610,202.077 204.800,201.967 204.800 C 201.857 204.800,200.972 205.610,200.000 206.600 M194.989 211.700 L 192.200 214.600 195.100 211.811 C 197.794 209.220,198.183 208.800,197.889 208.800 C 197.828 208.800,196.523 210.105,194.989 211.700 M187.600 219.000 C 186.628 219.990,185.923 220.800,186.033 220.800 C 186.143 220.800,187.028 219.990,188.000 219.000 C 188.972 218.010,189.677 217.200,189.567 217.200 C 189.457 217.200,188.572 218.010,187.600 219.000 " stroke="none" fill="#9bd462" fill-rule="evenodd"></path><path id="path4" d="M271.200 138.000 C 270.436 138.494,271.258 138.494,272.800 138.000 L 273.800 137.680 272.800 137.646 C 272.250 137.627,271.530 137.787,271.200 138.000 M277.200 138.000 C 278.742 138.494,279.564 138.494,278.800 138.000 C 278.470 137.787,277.750 137.627,277.200 137.646 L 276.200 137.680 277.200 138.000 M279.600 138.581 C 279.600 138.681,280.223 139.058,280.984 139.419 C 287.898 142.700,289.181 152.630,283.484 158.767 C 282.650 159.665,282.132 160.400,282.332 160.400 C 282.761 160.400,285.146 157.564,285.987 156.054 C 288.129 152.207,288.148 147.939,286.041 144.000 C 284.774 141.631,279.600 137.278,279.600 138.581 M268.020 139.579 C 267.701 139.781,248.143 159.218,224.558 182.773 C 200.973 206.328,181.524 225.600,181.338 225.600 C 181.152 225.600,173.080 217.681,163.400 208.002 C 153.720 198.322,145.655 190.402,145.479 190.402 C 145.302 190.401,153.190 198.421,163.008 208.224 C 172.931 218.132,181.113 225.992,181.430 225.924 C 181.744 225.856,201.490 206.315,225.309 182.500 C 249.128 158.685,268.612 139.203,268.608 139.206 C 268.604 139.209,268.339 139.377,268.020 139.579 M279.261 163.055 C 278.525 163.825,277.996 164.530,278.087 164.620 C 278.178 164.711,278.952 164.069,279.807 163.193 C 280.663 162.317,281.191 161.612,280.981 161.627 C 280.772 161.643,279.997 162.285,279.261 163.055 M275.700 166.613 C 274.765 167.549,274.000 168.452,274.000 168.618 C 274.000 168.785,274.845 168.088,275.877 167.071 C 276.909 166.053,277.674 165.150,277.577 165.065 C 277.480 164.979,276.635 165.676,275.700 166.613 M270.990 171.210 C 269.689 172.525,268.774 173.600,268.956 173.600 C 269.404 173.600,273.757 169.223,273.532 168.999 C 273.434 168.901,272.290 169.896,270.990 171.210 M266.486 175.815 C 265.544 176.797,264.917 177.600,265.092 177.600 C 265.268 177.600,266.197 176.790,267.156 175.800 C 268.116 174.810,268.743 174.007,268.550 174.015 C 268.358 174.024,267.429 174.834,266.486 175.815 M262.861 179.455 C 262.125 180.225,261.596 180.930,261.687 181.020 C 261.778 181.111,262.552 180.469,263.407 179.593 C 264.263 178.717,264.791 178.012,264.581 178.027 C 264.372 178.043,263.597 178.685,262.861 179.455 M255.000 187.242 C 252.140 190.073,249.931 192.392,250.092 192.395 C 250.497 192.402,260.587 182.450,260.373 182.254 C 260.278 182.167,257.860 184.411,255.000 187.242 M133.800 188.000 C 132.781 188.438,133.832 188.438,135.200 188.000 C 136.004 187.743,136.043 187.677,135.400 187.668 C 134.960 187.662,134.240 187.811,133.800 188.000 M139.600 188.000 C 141.142 188.494,141.964 188.494,141.200 188.000 C 140.870 187.787,140.150 187.627,139.600 187.646 L 138.600 187.680 139.600 188.000 M143.145 189.223 C 143.885 189.674,144.577 189.957,144.682 189.851 C 144.884 189.650,142.673 188.399,142.120 188.401 C 141.944 188.402,142.405 188.772,143.145 189.223 M128.999 190.843 C 127.168 192.531,124.974 196.363,125.312 197.283 C 125.416 197.568,125.643 197.260,125.817 196.600 C 126.330 194.647,127.548 192.770,129.496 190.929 C 130.503 189.978,131.205 189.200,131.055 189.200 C 130.905 189.200,129.980 189.940,128.999 190.843 M246.867 195.451 C 245.474 196.890,244.405 198.138,244.492 198.225 C 244.579 198.312,245.878 197.127,247.380 195.591 C 248.882 194.056,249.951 192.808,249.755 192.818 C 249.560 192.827,248.260 194.012,246.867 195.451 M124.901 199.800 C 124.905 200.680,124.987 200.993,125.083 200.495 C 125.179 199.998,125.175 199.278,125.075 198.895 C 124.975 198.513,124.896 198.920,124.901 199.800 M237.027 205.219 C 234.197 208.069,232.016 210.400,232.181 210.400 C 232.578 210.400,242.526 200.392,242.327 200.193 C 242.242 200.108,239.857 202.370,237.027 205.219 M125.419 203.400 C 125.549 204.060,126.080 205.320,126.601 206.200 C 127.731 208.112,173.760 254.111,175.200 254.767 L 176.200 255.223 175.200 254.541 C 172.727 252.855,127.620 207.388,126.877 205.833 C 126.448 204.935,125.892 203.750,125.640 203.200 C 125.195 202.226,125.189 202.231,125.419 203.400 M229.261 213.055 C 228.525 213.825,227.996 214.530,228.087 214.620 C 228.178 214.711,228.952 214.069,229.807 213.193 C 230.663 212.317,231.191 211.612,230.981 211.627 C 230.772 211.643,229.997 212.285,229.261 213.055 M225.700 216.613 C 224.765 217.549,224.000 218.452,224.000 218.618 C 224.000 218.785,224.845 218.088,225.877 217.071 C 226.909 216.053,227.674 215.150,227.577 215.065 C 227.480 214.979,226.635 215.676,225.700 216.613 M220.990 221.210 C 219.689 222.525,218.758 223.600,218.921 223.600 C 219.348 223.600,223.746 219.212,223.533 218.999 C 223.434 218.901,222.290 219.896,220.990 221.210 M216.486 225.815 C 215.544 226.797,214.917 227.600,215.092 227.600 C 215.268 227.600,216.197 226.790,217.156 225.800 C 218.116 224.810,218.743 224.007,218.550 224.015 C 218.358 224.024,217.429 224.834,216.486 225.815 M212.861 229.455 C 212.125 230.225,211.596 230.930,211.687 231.020 C 211.778 231.111,212.552 230.469,213.407 229.593 C 214.263 228.717,214.791 228.012,214.581 228.027 C 214.372 228.043,213.597 228.685,212.861 229.455 M205.008 237.243 C 202.153 240.079,199.962 242.400,200.141 242.400 C 200.567 242.400,210.587 232.450,210.368 232.245 C 210.276 232.158,207.864 234.407,205.008 237.243 M196.062 246.258 C 195.106 247.248,194.397 248.130,194.486 248.219 C 194.575 248.309,195.531 247.486,196.609 246.391 C 197.688 245.296,198.397 244.413,198.185 244.429 C 197.973 244.445,197.018 245.268,196.062 246.258 M190.593 251.673 C 186.757 255.573,182.249 256.839,177.200 255.434 C 176.610 255.270,176.751 255.411,177.546 255.778 C 180.047 256.934,184.091 256.503,187.400 254.727 C 188.779 253.987,192.632 250.499,192.365 250.232 C 192.267 250.134,191.470 250.783,190.593 251.673 " stroke="none" fill="#d4ecbc" fill-rule="evenodd"></path></g></svg>